<?xml version="1.0" encoding="UTF-8"?>
<svg id="uuid-2c91c458-9ce0-4eb5-a5ef-df82d9745849" data-name="Layer 1" xmlns="http://www.w3.org/2000/svg" viewBox="0 0 427.42 102.99">
  <defs>
    <style>
      .uuid-00d5f223-6f54-4656-b2fb-ad9e73ed874a {
        fill: #231f20;
        stroke-width: 0px;
      }
    </style>
  </defs>
  <path class="uuid-00d5f223-6f54-4656-b2fb-ad9e73ed874a" d="m423.27,85.74l2.84-4.63v4.6h.38v-13.76h-7.09v5.07h6.71v3.26L260.61,2.34V0h-.57v2.69h-103.84V.14h-.57v2.52L8.3,86.95l-1.35-5.82-6.95,1.68,1.1,4.27,6.48-1.51.37,1.58-.1.06.15.17.98,4.23h-1.59s-1.32,1.94-1.32,5.53,1.75,5.86,1.75,5.86h417.85v-6c0-2.41.8-8.13,1.65-10.3l.09-.94h-4.14Zm-3.49-9.1v-4.31h6.33v4.31h-6.33ZM1.38,86.63l-.92-3.54,6.2-1.5.84,3.61-6.12,1.43Zm261.78-23.94v-.66h3.97v.66h-3.97Zm5.15,12.9h-5.15v-.57h5.15v.57Zm-15.26-14.5h6.02l-.09.57h-5.93v-.57Zm6.41,0h2.23v.57s-2.33,0-2.33,0l.09-.57Zm.59-38.97h-1.23v-1.61h1.23v1.61Zm.57-1.61h1.46v1.61h-1.46v-1.61Zm-2.17-.38v2.36h1.61v.43h-6.16l4.87-18.24,1.26.65.04-.08v14.88h-1.61Zm3.54,15.78v-.28h1.46v.28h-1.46Zm.66.38v1.13h-.66v-1.13h.66Zm-.66,5.81v-3.12h.61v3.12h-.61Zm-1.37-3.12h.99v3.12h-.99v-3.12Zm0-.38v-.8h2.46v.8h-2.46Zm.99-2.5v1.32h-.99v-1.8h.99v.47Zm-1.56-12.8v1.07l-9.56,16.83-1.36-.45,4.66-17.45h6.26Zm0,1.84v16.96h-1.37c-.08,0-.15.05-.18.13-.03.08,0,.16.07.21l3.09,2.21v.26s-10.8-3.59-10.8-3.59l9.2-16.19Zm-.52,35.58l2.14-13.23.03,13.23h-2.17Zm2.18,1.32v.66s-2.5,0-2.5,0l.11-.66h2.39Zm.38,0h.71v.66h-.71v-.66Zm5.06-.38h-3.97v-.57h3.97v.57Zm-4.34,0h-.71v-.57s.72,0,.72,0v.57Zm-.72-.94l-.04-15.54.02-.13h-.02s0-.3,0-.3h.8l-.04,15.97h-.72Zm1.11-3.78l.44.54h-.44v-.54Zm.01-4.26l.43.53h-.43v-.53Zm.01-4.1l.42.52h-.42v-.52Zm-.23-6.47v-3.12h.28c.1,0,.19-.08.19-.19v-1.18c0-.1-.08-.19-.19-.19h-.24v-1.13h.61c.1,0,.19-.08.19-.19v-.66c0-.1-.08-.19-.19-.19h-3.02v-12.76h1.84v-2.36h-1.84v-10.48l7.25,32.44h-4.89Zm-2.93-39.02v1.84l-1.54-.79-5.02,18.79h-90.45s0,0,0,0h-6.83v-.43h1.75v-2.36h-1.75V3.07h103.84Zm-70.37,31.42l-25.76-11.2h72.4l-46.64,11.2Zm-33.55,12.49c.05.56.51,1,1.08,1,.08,0,.16-.01.23-.03l20.01,5.26-22.43,17.83h-.13v-13.3h.74v-.4h-.27l-.13-.76h-.34v-3.08h.74v-.4h-.27l-.13-.76h-.34v-3.01h.74v-.4h-.27l-.13-.76h-.34v-.73h.4v-.47h.84Zm22.68,12.91l-.58-.61c0-.27,0-.56,0-.66.06-.08.24-.28.4-.44l.04-.04v-.06c.21-1.13.49-2.73.59-3.32v3.37l.24.59v.82l-.68.35Zm.07-6.77c-.29,0-.52-.23-.52-.52s.23-.52.52-.52.52.23.52.52-.23.52-.52.52Zm-1.09-.52c0,.11.02.21.05.31l-.02.02-19.88-5.23c.22-.2.36-.48.36-.8,0-.12-.02-.23-.06-.34l19.91,5.24c-.22.2-.36.48-.36.8Zm-20.58-6.22c.29,0,.52.23.52.52s-.23.52-.52.52-.52-.23-.52-.52.23-.52.52-.52Zm-2.69,24.68h-1.09v-14.3l1.09-7.7v22Zm0-24.7l-1.09,7.7v-8.53h1.09v.83Zm-1.46,1.35v9.03l-4.25,30.15h-.98l5.23-39.18Zm-.07-2.33l-.07.49-10.92-3.75,8.97-12.32-3.05,13.77h.96l4.1,1.8Zm2.67-25.24h-1.51v2.36h1.51v1.24h-.73l-3.19,4.38,3.92-17.68v9.69Zm0,1.98h-1.13v-1.61h1.13v1.61Zm.57-1.61h1.37v1.61h-1.37v-1.61Zm-1.1,3.61h.53v11.87h-1.13v-.41h-1.17v.66h-.35v.79h.35v6.17h-4.96l3.14-14.16,3.59-4.92Zm-.28,19.09v-6.14h.82v6.14h-.82Zm1.39,0v-6.14h.57v-1.07h-.57v-11.06l.57.31.74,17.96h-1.31ZM8.53,87.94l3.34,3.66h-2.49l-.85-3.66Zm132.61-1.54v.61h-3.12v-2.65h4.91v-5.62h-1.04v-.71h-2.03v-1.89l-.33-.43h-2.55v1.13h-.76v.66h-5.1v.66h-2.93l-.57-.85v-.61l.8-.57h.9v-.43l.38-.28v-.38l-1.28-.52s-1.44-.12-1.56,0-.85.8-.85.8h-5.29v.8h4.77l.8.43v.38l-.76.71v.43h-1.7v.47s-2.01-.12-2.13,0-2.88,1.75-2.88,1.75h-4.68v.52h-17.38v1.18h17.29v.57h1.61v1.84h-.66v7.23h-1.61v-1.61h-2.55v1.51h-3.12v-1.09h.66v-5.1l-1.04-.52v-.52h-1.04v.52h-.52v-.94h-.47v-1.18h-2.79v.52l-1.42,1.09-13.65.71-2.6,1.8h-5.2v.33h-17.05v1.42h17.1v.47h1.51v1.56h-.52v.99h-1.61v-1.13h-2.6v1.18h-1.37v-.61h.47v-.57h-.47v-.57h-2.41l-.71,1.18h-.8v.57h-3.21v-.66h.43v-.99h-2.79v.94h.57v.61h-2.03v-.66h.33v-.71h-3.26v.8h.47v.61h-3.5v-1.18s-2.03.19-2.03,0v-.9s1.28-.57,1.28-1.32v-1.23h-1.51v-.71c0-.43-.57-2.41-2.08-2.41v3.35h-11.34v-3.35s-2.27-.05-2.27,2.46h-1.56v1.75h-.52v1.65h.43v1.89h-.76v-.52h-.47v-.8h.24v-.76h-1.98v.85h-.94v-.8h-1.8v1.13h-1.98v-.47h-.76v1.23h-1.32v-.61h-3.78v.85h-3.5v-.94h-2.79v.57h-2.36v-.57h-1.32v.85h-3.04l.17-.16-3.78-4.14L155.64,3.1v5.59l-4.47,20.19-9.55,13.11-1.45-.5-.12.36,12.82,4.4-5.43,40.63h-2.51v-.47h-3.78Zm12.05.47h-4.01l3.87-27.44v11.62h-.28s-1.23,1.51-1.23,1.65v3.64h1.65v10.53Zm59.57-6.47h-.71v6.38h-2.55v-1.94h.52v-.47l-.85-.66h-3.45v-.43h-3.4v-.28h.8v-.66h-1.61v-.61h-.52v-.66s.94-.43.94-1.84l-1.23-1.23v-.57l.33-.38v-.99l-.99-.28v-.61l.43-.24v-.38l-1.98-.94-1.84.94v.71l.43.24v.24l-1.42.38v.76l.47.47v.47l-.99,1.09v1.56l.8.9v.33l-.8.28v.38h-.94v-.57l-.47-.52.61-.76v-1.37l-.8-1.28v-.52l.61-.47v-.71l-.61-.33h-.76v-.52h.33v-.57l-1.94-.99-1.84.99v.52h.52v.57h-1.04l-.43.47v.52l.52.52.05.43-1.04,1.04v1.46l.8.99v.43l-.76.19v.38h-.57v-.38l-.8-.38v-.43l.61-.61v-1.46l-.76-1.18v-.52l.38-.28v-.8l-.52-.33h-.8v-.47h.38v-.94l-1.89-.61-1.75.61v1.37h-.47l-.47.52v.8h.43v.71l-1.04,1.18v1.13l.94,1.28-.57.24v.61h-2.93v-.85l1.56-1.56v-1.65l-.71-.57h-.85v-1.18l-.76-1.89h-.99v-.57h-.43v1.28h-1.46v1.51h-.43v.76h-1.04l-.71.71v1.56l1.75,1.75v.71h-2.46v-.71h-.76v-.52l.71-.76v-1.28h-.66v-1.37l-2.31-1.56-2.13,1.51v1.37h-.8v1.32l.83.83v.54h-.78v.71h-.8v-.76h-.66v-.57l.85-.8v-.99h-.71v-1.84l-2.31-1.28-2.27,1.32v1.89h-.9v.94l.87.87v.5h-.54v.61h-2.08v.66h1.23v3.87h-3.45v-9.02h.57l1.98-1.18v-3.35l-.38-.71h-1.7v-.86l22.88-18.19c.13.09.29.14.45.16v.97h.14c-.06.33-.21,1.16-.58,3.31-.42.45-.43.49-.44.53-.01.03-.03.08-.01.87v.07s.72.77.72.77v1.33h.76v-.38h-.38v-.91l.91-.47v-1.09l-.24-.59v-3.44h.19v-1.06h-.51c.38-.17.65-.55.65-.99,0-.6-.49-1.09-1.09-1.09-.08,0-.16.01-.23.03l-20.72-5.45c-.19-.17-.44-.28-.72-.28-.49,0-.9.33-1.03.77h-.48l-.4-.71h-.4v-.35h.32l2.12-1.95h.59l-.77-18.57-.94-.51v-1.2h6.75l26.57,11.55,20.13,29.85v.67l3.09,1.62v13.42Zm30.05-22.63v2.98h-1.09v.66h.47v6.33h-.94l-.66-.9v-2.88l-.43-.71h-.52l-.71.66v1.75l.57.38v.57h-.61v.94h-1.7v.85h1.18l3.83,1.61v10.25h-.57v6.52h-1.89v-1.8h.47v-.47l-.8-.61h-3.4l-.76.61v.38h.61v2.03h-1.75v-.61h-2.03v-1.46h.76v-.38l-1.04-.61h-3.17l-1.04.71v.38h.66v1.98h-2.41v-6.52h-.76v-13.56l4.35-1.65v-.57h-4.11v-.61h-.8v-1.04s.61-.14.8-.38c.19-.24.28-1.04.05-1.37s-.57-.76-.99-.76v-2.5h-.85v-.94h1.45s.08-.37.08-.37l-1.07-.47v-1.53h1.09s.08-.37.08-.37l-2.69-1.18-6.26-.02-3.33,1.24.07.37h1.37s0,1.43,0,1.43l-1.53.57.07.37h1.43s0,.66,0,.66h-1.04v2.98l-.57-.57h-.57l-.76.76v1.84h1.75v1.18h-1.42l-.6.54h-1.11l-19.99-29.65,47.96-11.52h15.46l-4.68,17.52-.05.17,12.96,4.3-2.49,15.41h-6.08v-1.8h.99v-1.09h-.9v-.8h1.18s.08-.37.08-.37l-1.07-.47v-1.53h1.09s.08-.37.08-.37l-2.69-1.18-6.26-.02-3.33,1.24.07.37h1.37s0,1.43,0,1.43l-1.53.57.07.37h1.46s0,.71,0,.71h-.85Zm-23.83-3.09v.79h-1.84v-.78h1.84Zm.38.79v-.79h1.89s0,.79,0,.79h-1.89Zm3,0h-.74v-.81h1.98s0,1.35,0,1.35l-1.25-.55Zm-5.6-.79v.77h-.66s-1.42.53-1.42.53v-1.29h2.08Zm31.57,0v.79h-1.84v-.78h1.84Zm.38.79v-.79h1.89s0,.79,0,.79h-1.89Zm3.01,0h-.74v-.81h1.98s0,1.35,0,1.35l-1.25-.55Zm-5.6-.79v.77h-.66s-1.42.53-1.42.53v-1.29h2.08Zm6.94,7.34h5.87l-.11.66h-5.76v-.66Zm10.11,20.31v-4.58h2.83v4.58h-2.83Zm2.83-5.24v.28h-2.83v-1.42h5.15v1.13h-2.31Zm55.54,1.1l-.55.55v1.26h-.47v-.32h-1.13v.82h-.94v5.45h1.35l-.41.79h-2.65v-2.33l-.54-.54h-3.34l-.69.79v2.17h-.57v-7.31l-.63-1.86,9.51-.09v-.28h1.06v.9Zm97.76,6.79s.24.8-.66.8-.76-.47-.47-.8c0,0-1.13-.28-1.42.66l-9.4.14v-.38h-.38v-1.51h-2.17v.47h.33v1.23h-.8v-1.75h-2.27v.52h.38v.94h-.76v.8h-4.54v-.47h-3.87v.52h-3.17v-1.23h-2.88v1.28h-1.23v-1.28h-1.13v-.47h.52v-.47l-.57-.57h-2.79l-.52.52v.47h.66v.9h-.43v-.38h-.99v1.23h-2.41v-.43h-1.13v-.85h.28l.76-.94v-.9h-.85v-2.36h-.38v2.41h-.9l-.76.47h-5.72l-.33-.38h-1.37v-2.41h-.47v2.36h-.71v1.42l.8.24v.94h-1.46v-1.13h-2.22v1.13h-.43v.47h-.9v-.85h.33v-.8h-2.5v1.23h-1.42v.9h-.61v-1.09h-.9v1.04h-1.84v-.52h-.9v-.38h-2.41v.47h-1.23v-1.28l-.38-.47h-1.32v2.08h-3.31v-.8h-.38v-1.7h1.42v-.38h16.96v-1.42h-17.05v-.43h-5.53v-.33l-1.65-.99h-.66s.12-.64,0-.52-14.36-.76-14.36-.76l-.47-.9v-.99l5.34-.19v-1.18h-17.1v-.52h-5.43l-2.22-1.8-3.59-.19-.61-.61-.47-.94-.05-.43,1.56-.38h3.87v-.57h-5.48l-.8-.57h-.71v-.38h-.66l-.76.76v.47l.94.8.76.52v.94h-4.11c-.14,0-4.39-.38-4.39-.38l-.52-.66v-.71h-2.93v.71h-.43v1.42h-.52v-.38h-1.18l-.28.9h-.71v5.39h4.58v7.7h-6.99v-.52h-.38v-1.61h-1.09v-6.52h.47l1.23-1.32v-1.98h-1.75v-3.78h-4.3v-1.84l-1.32-1.89h-3.4l-.99,1.8v.66h-1.61v4.58h-5.15v-5.39l1.98-1.61h2.79v-4.96h-.43v-1.98h-4.34v-2.86h.84c.07,0,.14-.04.17-.11s.02-.14-.02-.2l-.98-1.21v-2.75h.83c.07,0,.14-.04.17-.11s.02-.14-.02-.2l-.97-1.2v-2.6h.82c.07,0,.14-.04.17-.11s.02-.14-.02-.2l-.96-1.19v-3.29s5.51-2.22,5.51-2.22c.08-.03.13-.12.11-.21-.02-.09-.1-.15-.19-.15h-.39l-7.64-34.18V2.75l165.36,77.87-3.1,5.06.08.05h-2.52s.09-.76-1.13-.76Z"/>
</svg>