<?xml version="1.0" encoding="UTF-8"?>
<svg id="uuid-6f727fd7-dd58-4356-98c9-102fcf88cb6a" data-name="Layer 1" xmlns="http://www.w3.org/2000/svg" viewBox="0 0 419.76 107.97">
  <defs>
    <style>
      .uuid-bc06c386-1814-4d03-9900-052c071805eb {
        fill: #231f20;
        stroke-width: 0px;
      }
    </style>
  </defs>
  <path class="uuid-bc06c386-1814-4d03-9900-052c071805eb" d="m419.76,80.03v1.48s-21.89,15.2-27.8,24.42v2.04H6.4v-.99S2.96,97.62,0,94.74v-1.55h.49v-19.57h.77v19.71h27.24v-.56h-7.88l-1.69-.49-.42-1.06.7-1.27,2.18-2.32s-2.32,0-2.67.14c-.35.14-10.91,1.97-10.91,1.97l-1.83.42-.42-.49s7.39-1.83,7.67-1.9c.28-.07,10.21-1.97,10.21-1.97l3.8-1.97s2.89-.35,3.1-.35,4.93-.63,4.93-.63h18.02v.7h-6.12v5.7l-4.29,3.38-.92.21v1.06h21.61v-1.13l2.11-5.56h7.32s-.07-1.97,0-1.9c.07.07-5.14,0-5.14,0v-.77h6.26v-1.62h7.25v4.22h5.35v-2.6l.77-2.25h3.31v-1.97h-4.57v-.77h7.25v-.77l2.04-.84h4.5l.92,1.13v3.8h3.59v-1.48h.99v-3.38l-2.11-2.04h-.7v-2.04h3.31v-1.9h6.9v-1.69h-1.62v.7h-.92v-.84h-1.69v-.7h1.69v-.84h1.48v-.7h2.04v.63l1.55,1.06v.99h-1.62v1.48h1.34v2.39h5.49v-1.69h.7v-1.76l-2.46-1.69v-1.55h4.15v-3.38h1.69v-1.69l-1.2-.92v-1.83l.99-1.34h1.9l3.1,2.39v.7l-1.48,1.69v.92h.77v3.31h3.87v1.69s3.03.21,3.03,0v-2.39l1.27-3.87h-1.9v-.56h-.84v-.77h3.17l1.55-3.73v-1.2h-2.6v-.84h-4.15v-.84h8.59v-6.12h-.99v1.13l-1.48,1.06h-2.18v-.63h-2.82v-1.41h.7v.77h3.73v-.91h-1.48v-1.48h1.27v-.84h1.27v1.27h1.69l1.13-.99v-3.03h1.13l3.73,4.79v2.53l-.84,1.06h-.99l-1.55-4.22h-1.27v4.15l.7,2.74h6.9v.7h-2.39v.99h-3.03v2.18l1.27,2.75h2.74v.91h-2.32l1.97,6.26h.77v-3.24l2.32-7.11v-2.67h-.77v-2.25l.77-1.55v-7.81h-2.04l-2.04-1.9v-.77h3.31V12.81h1.62v28.65h5.07v.7h-2.18l-1.83,1.83v9.85h.7v2.25h-.84v2.39l-2.67,7.18-.77,1.41v1.83h1.55v4.57h4.29v1.41l3.66-2.11h1.48v1.41h-1.48l-3.52,2.46v2.04h1.83v-.91h.7v-.7h1.55v.63h.84v.91h2.67v-4.15h.84v1.62h.77v2.46h3.03s-.11-1.79,0-1.69,1.97,0,1.97,0v.92h.77v.84h4.08l2.53-19.5h-1.9v-1.69h2.32v-4.08l-3.24-3.52v-4.29l2.82-3.59v-2.04h1.97s-.07-1.9,0-1.9h2.32v1.69l6.93-.05v-10.3h-.53l-3.1,3.52-1.13-.91h-2.39v-1.62c0-.21,2.67-4.29,2.67-4.29h4.47V5.6h-9.08V1.06h9.08V0h.63v22.9l3.41-.87.7-.91h2.18v4.01l3.45,10.49-3.87,1.83-3.17-6.26h-.77v5.98h.63v2.46h3.73l4.08-.7h3.38v1.62s-4.22,1.27-4.43,1.34c-.21.07-4.57,2.82-4.57,2.82v.99l2.46,2.96v1.2h3.17v-3.59h3.52v-.77h-.84v-1.27l.88-.88h1.09l.97.97v1.04h-.83v1.13l-.84.84h-2.25v2.53h.84v1.55h-5.14v.91h-1.48l1.55,9.57v7.04h1.13v-7.18l1.9-1.97h9.64v3.45h4.29v-2.04l1.2-1.13h.63v-1.06l-1.13-1.2-.7-.14v-.99h.7l1.97-2.39h.84v-21.26h.63v21.19h.99l1.76,1.76v1.9h-1.06v2.25h1.62v3.87h14.43v7.88h1.76v-.84h2.67v2.32h-.92l-1.76,2.46v2.75h.77v3.38h1.83v-2.89h-.63v-1.06s2.46-.07,2.46,0,0-4.22,0-4.22h10.7v-1.76h.99v-1.83h4.65l.77.77h7.25v.84h-6.05v2.53h3.94v1.76h3.59v.91h-2.25v.7h-2.6v.7h-1.13v3.17h.84v3.73h12.18v-4.01h-2.39v-6.12l2.25-2.25h12.39l4.79,2.74v1.13l30.34-1.69.21,1.69-30.48,3.17v2.53h.99l6.55,6.62,31.6-1.2,1.83-2.39,87.42-5.49Z"/>
</svg>