<?xml version="1.0" encoding="UTF-8"?>
<svg id="uuid-30a903c2-50db-4111-93ea-7277e4698ca8" data-name="Layer 1" xmlns="http://www.w3.org/2000/svg" viewBox="0 0 425.14 97">
  <defs>
    <style>
      .uuid-5acac266-b88b-4819-8ad5-35f21bf21e9f {
        fill: #231f20;
        stroke-width: 0px;
      }
    </style>
  </defs>
  <path class="uuid-5acac266-b88b-4819-8ad5-35f21bf21e9f" d="m341.04,70.14v-3.53h21.79v-2h-22.41l-3.68-2.15h-18.11l-2.61,2v4.14h6.29v1.53h-10.9v-9.21l21.18-.92v-1.53h-21.64l-4.3-2.46h-17.34l-2.3,2v4.76h5.83v6.75h-4.91v-2.3h-2.3v-1.38h-1.53v-8.13h-11.97v-4.45l-5.99-2.15h-13.2v4.76c0,.31-2,0-2,0v-5.22h-1.38v-1.38h-6.29v-2.15h2.15v-4.91l4.76-2.15h2.46v-1.38h-3.07v-1.53h.92v-3.07h-2.92c-.46,0,0,.77,0,.77h-2v-2.3h1.23v-.92h-3.99v-1.53h-3.38v-8.9h-.92V1.07h-7.21l5.06,5.37v24.1h-3.84l-4.76,2v4.3h3.99v2h-1.3v5.45l-2.07,2.07,2,2h2.3v2.76h-1.38v5.76h-6.83l-3.45-3.45h-1.38v-10.13l-2.3-3.53-12.59,3.38h-3.38v3.84h-2.15v3.99h1.84v18.11h-14.27v-9.67h2.3l1.38-4.45h-7.67v-1.23h-2.61v-20.57h1.23v-3.99h-2.15V0h-1.07v14.58h-5.99l5.68,5.37v8.9h-.92v4.45h1.38v12.28h-2.46v.92l1.23.77h1.23v2h-2v1.84h-3.99v.92h-1.23v3.22h-2v-4.14h1.23v-1.23h-7.37v1.84h1.07v7.06h-.92v1.38h-8.44v-2.76h-2.15v-1.84l-2.76-3.53v-13.97h-1.38v14.12l-2,3.38h-5.22v4.45h-2.92l-1.53,3.99h-2.3v-4.76h1.84v-1.53h-8.13v1.53h1.38v8.44h-3.68v1.53h-4.14v-5.37h5.06v-3.99l-2.15-2.15h-17.8l-3.38,2.61h-21.95v1.84h22.56v2.3h-1.84v7.06h-11.66v-1.69h5.83v-4.14l-2.46-2h-17.8l-3.99,2.76h-21.64v2h21.79v2.46s-55.25.31-57.71,0c-2.46-.31-9.67-2-9.67-2l-3.3-1.46S0,66.61,0,69.07s-.15,5.37,3.22,10.44c3.38,5.06,10.44,6.91,12.89,6.91h3.99l1.53,7.67h8.9v1.23h2.61v1.69h1.84v-2.3l10.44.92.92,1.23,354.39-.92s2.76-1.07,10.13-12.28c7.37-11.2,14.27-14.73,14.27-14.73v-1.53l-84.11,2.76Zm-97.15-33.46h2.61v2.61h-2.61v-2.61Z"/>
</svg>