<?xml version="1.0" encoding="UTF-8"?>
<svg xmlns="http://www.w3.org/2000/svg" xmlns:xlink="http://www.w3.org/1999/xlink" viewBox="0 0 517.19 364.27">
  <defs>
    <style>
      .uuid-0bd87078-7ce7-4c39-af10-45eeb4a3684a, .uuid-2a822082-2ea0-4665-952a-fe7d83e1be72 {
        stroke-width: 0px;
      }

      .uuid-2a822082-2ea0-4665-952a-fe7d83e1be72 {
        fill: url(#uuid-c437377d-478e-451c-bc4b-21e2c93d0250);
      }
    </style>
    <linearGradient id="uuid-c437377d-478e-451c-bc4b-21e2c93d0250" x1="266.39" y1="386.75" x2="256" y2="162.29" gradientTransform="translate(1.02 22.53) rotate(-.32) scale(1 .84) skewX(-.58)" gradientUnits="userSpaceOnUse">
      <stop offset="0" stop-color="#fff"/>
      <stop offset="1" stop-color="#000"/>
    </linearGradient>
  </defs>
  <g id="uuid-c5249e1e-a7e4-4bad-bc51-6bb3b5a9be9b" data-name="reflection">
    <path class="uuid-2a822082-2ea0-4665-952a-fe7d83e1be72" d="m512.38,194.97l-269.04,1.25-89.27,3.96-98.38,2.18s-10.11,13.02-14.64,18.1c-4.32,4.84-21.45,20.41-23.03,21.84h-.27s.19,5.44.19,5.44h-.05s.06.74.06.74l4.46-.31.58,16.65c-.62.06-1.67.17-2.44.26-1.17.13-1.95-.12-5.06-.78-3.12-.66-4.76-3.58-8.01-4.08-3.26-.5-3.89-1.77-4.9-2.44-.06,1.32-.15.9,1.52,4.43,1.67,3.53.2,6.81.2,6.81,0,0-.2-.05.82.34,1.81.7,1.65,1.11,4.31,3.32,2.65,2.21,7.36,1.24,10.14,1.76,2.04.38,3.27,1.05,3.83,1.39l.03.86,1.17-.04-1-28.57,89.56-6.25c-.33.75-.25,1.7-.37,2.56.15,1.39,2.33,4.75,2.33,4.75,0,0-5.1.1-6.16.38-.14.1-.17.31-.16.57l-13.55,1.13.15,1.38,13.78-1.15c.02.07.04.11.04.11l.8.38,5.97-.37s2.11,1.4,5.03,3.59c4.24,3.37,6.95,2.54,6.95,2.54,0,0,8.91-.31,15.08-.45,6.34-.96,5.56-6.34,5.56-6.34l-.48-10.8-3.73-.2v-.26s6.91-.49,6.91-.49c.62.6,1.55,1.02,2.61,1.07,2.16.09,7.45-.1,10.84-1.2.97-.32,1.6-.64,2.03-.95l12.7-.89.54,1.13,5.29-.19s.57,4.98,1.63,12.97c1.06,7.99,3.92,14.04,3.92,14.04l1.89,3.62,9.3-.33.22-1.98,4.01-.14.47,2.2s.86,13.16,1.07,16.59c1.8,6.74,11.2,9.19,16.2,9.02,13.08-1.69,14.43-10.67,14.58-12.15.15-1.48-.28-8.02-.28-8.02l.49-.1,7.15-.17.95,12.56-15.08,12.43-.98.03.05,1.23,3.23-.11-.02-.47,17.43-.61-.02-.51.33-1.65,2.94-.02.24,1.46,2.46.16s.25,1.63.06,1.8c-.39.1-1.37-.03-2.25.16-.88.2-4.24,2.12-5.4,2.65-1.16.53-1.23,1.35-1.28,2.83-.05,4.01,3.86,6.5,5.74,7.17,1.89.67,4.39-.81,9.13-2.54,5.2-2.72,4.87-6.56,3.72-8.57-1.15-2.01-3.3-1.77-3.3-1.77l.31-2.47,10.57-.62.58-3.05,1.95-.4-1.01-15.74,2.32-.08,1.33,37.76-9.01.31.04,1.15h.2s.24,6.87.24,6.87l9.4-.33-.04-1.23.69-.02.09,2.59c-2.16.82-3.64,2.66-3.56,4.74.09,2.76,2.87,4.9,6.2,4.78.21,0,.42-.02.63-.05l.5,14.1.58-.02-.5-14.18c2.73-.56,4.71-2.65,4.63-5.06-.07-1.95-1.48-3.59-3.49-4.34l-.1-2.74,10.87-.38.31,8.67-1.86.07.02.65,1.86-.07.09,2.54-2.25.08.03.74,2.25-.08.15,4.26-2.25.08v-.08s-1.08.04-1.08.04l.07,1.88-3.43.12.05,1.31-4.7.17v.49s8.15-.29,8.15-.29l.05,1.56-2.23.73-.09.66-6.54.23.02.57,2.94-.1.02.74,6.46-.23.05,1.31,3.62-.13.12,3.44-.88.03.24,6.71-2.16.08v.24s2.16-.07,2.16-.07l.23,6.38,1.27-.04-.23-6.38,3.82-.13v-.24s-3.82.13-3.82.13v-.08s2.84-.1,2.84-.1v-.08s-2.85.09-2.85.09l-.2-5.81,1.86-.06-.15-4.17,4.31-.15-.05-1.31,2.74-.1-.04-1.14-4.41.15v-.16s7.93-.28,7.93-.28l-.06-1.64-3.19.11c-1.45-.77-4.1-2.13-4.84-2.51l-.23-6.41.79-.02-.02-.74-.79.03-.41-11.86h.1s-.2-5.65-.2-5.65h.1s-.04-1.15-.04-1.15l-.44.02-.19-1.22-11.75-8.83.61-27.36,1.55-.05.22,6.32.03.86.02.55s.89,1.99,3.17,2.28c4.06.53,4.85-2.2,4.83-2.63-.02-.43.02-1.41.02-1.41h-.07s-.22-6.26-.22-6.26l4.48-.16v-.37s-4.49.16-4.49.16l-.02-.55h-.07l-.04-1.1-.95.03-.5-14.37,9.84-.19.22-2.06s18.88-4.02,24.12-5.27c5.26-1.25,10.7-2.5,13.69-3.84,2.99-1.33,3.54-2.58,3.54-2.58l17.43-.61,5.09-2.88,4.41-.07,1.39,3.23,1.19.45s.23.98.26,1.87c.03.9.45,1.46.77,2.35.32.89,2.08.75,6.1.69,4.02-.06,3.88-1.28,4.16-1.79.01-.02.02-.05.03-.08l8.26,2.87.38-.76-8.4-2.91c.21-.87.4-2,.4-2,0,0,1.94-.56,2.14-.57.19,0,1.45-3.32,1.45-3.32l2.25-.16.12.57,1.37.12,1.69,3.38s.98-.04.9.54c-.27.75.7,3.33.82,3.58.11.24.81.79,1.59.76.78-.03,7.94-.2,8.7-.8.34-.27.59-.91.77-1.54l8.12,3,.41-.75-8.35-3.08c.08-.41.12-.69.12-.69l.25-1.32,1.66-.3,1.35-3.32s.58-.19,3.42-.37c.57-.51,1.26-3.32,1.26-3.32l11.54-.82.44,1.46,4.7-.25.24-1.48,15.95-.81,4.61-16.54s1.76-.23,2.45,0c-1.03,1.42.77,2.43.77,2.43l3.73.03s.31.48.42.8c.11.32,1.89,3.46,1.89,3.46,0,0,.94,1.61,1.94,2.15,1,.54,1.29.44,1.11.78-.18.33-.27.75.45,1.7.72.96,2.63,2.37,4.27,1.49,1.63-.87,5.59-5.44,5.36-6.5-.23-1.06-1.22-1.18-1.22-1.18l3-3.88s10.78-.13,13.31-.55c.17-.03.41-.06.69-.1l.47,13.61c-.25-.31-.93-1.2-1.36-2.37-.54-1.45-.17-1.96-.41-3.34-.24-1.38-.57-2.36-1.49-3.39-.92-1.03-1.48-3.14-1.48-3.14,0,0-.21-.32-.45,1.16-.25,1.49-1.17,3.07-2.5,4.1-1.33,1.03-2.41,1.15-2.41,1.15,0,0,.5.31,1.62,1.25,1.11.94.73,1.37,1.83,4.77,1.1,3.4,1.2,3.4,2.91,4.65,1.71,1.25,1.92,1.73,3.09,4.15.52,1.09.84,1.4,1.03,1.42v.43s.7-.02.7-.02l-.86-24.52c4.56-.56,16.7-1.79,18.15-2.63,2.6-7.06-4.22-23.76-4.22-23.76Zm-216.56,147.11h.2s-.02-.5-.02-.5l2.05-.07.13,3.52-1.47.05v-.16s-.79.03-.79.03l-.1-2.86Zm2.16-2.7l.03.82-2.26.08-.03-.82,2.25-.08ZM22.39,247.43l-3.57.25-.19-5.32c.75-.05,2.02-.13,3.57-.23l.19,5.3Zm.93,26.53c-.63-1.5-1.68-4.2-1.58-5.33.08-.95.78-2.26,1.28-3.09l.3,8.42Zm4.22-26.89l-3.98.28-.19-5.3c1.24-.08,2.6-.16,3.99-.25l.19,5.27Zm8.73-.61l-7.85.54-.18-5.26c2.89-.17,5.8-.33,7.85-.4l.18,5.12Zm10.48-.74l-9.61.67-.18-5.08c.25,0,.48-.01.69-.01.87-.02,4.16-.23,8.93-.57l.17,4.99Zm9.61-.67l-8.73.61-.17-5c2.57-.18,5.52-.4,8.73-.63l.17,5.02Zm9.17-.64l-8.29.58-.18-5.03c2.63-.2,5.42-.41,8.29-.62l.18,5.07Zm9.91-.69l-9.02.63-.18-5.07c2.95-.22,5.98-.45,9.02-.69l.18,5.13Zm11.37-.79l-10.49.73-.18-5.13c3.54-.27,7.07-.54,10.49-.8l.18,5.21Zm11.37-.79l-10.49.73-.18-5.21c3.7-.29,7.25-.56,10.49-.81l.18,5.29Zm11.37-.79l-10.48.73-.19-5.3c4.17-.32,7.78-.6,10.49-.81l.19,5.38Zm10.23-1.3s-1.07.12-4.1.39c-.88.1-1.48.31-1.89.61l-3.36.23-.19-5.39c2.76-.21,4.38-.34,4.38-.34l.66,2.19,4.14.43.36,1.87Zm31.27-5.85s-.05,1.31-.49,2.8c-.15.49-.06,1,.2,1.47l-6.21.43-.05-1.48,3.02-.65.81-1.91,2.72-.67Zm20.35,2.84l-3.83.26c.3-.44.41-.81.91-1.01,1.06-.45,1.65-3.17,1.65-3.17l1.13-.05.14,3.97Zm7.74-.54l-6.87.48-.14-3.95,5.23-.24,1.77,3.71Zm67.92,51.59l-.34,4.35-4.78.66-.43,1.58s-1.57.05-2.02,1.13c-.45,1.08.16,1.88.46,2.03.3.15,2.06.09,2.06.09l.4.5-8.31.29v-.1s-1.1.04-1.1.04l13.99-11.53.07.96Zm33.47,20.37l1.12-.04.24,6.87-1.13.04-.24-6.88Zm-.11-2.95l1.13-.04.09,2.62-1.13.04-.09-2.62Zm-.08-2.41l1.13-.04.08,2.17-1.13.04-.08-2.17Zm-.08-2.41l1.12-.04.08,2.17-1.13.04-.08-2.17Zm-.08-2.41l1.13-.04.08,2.17-1.13.04-.08-2.17Zm-.09-2.41l1.12-.04.08,2.17-1.12.04-.08-2.17Zm-.08-2.41l1.13-.04.08,2.16-1.13.04-.08-2.17Zm-.56-15.88l1.13-.04.55,15.63-1.12.04-.55-15.63Zm.36-2.04l.7-.17v.15s-.7.02-.7.02Zm6.32,8.93l-.02,30.68-.91.03-1.08-30.64,2.01-.07Zm4.45,22.42c1.31,1.21,4.31,4.01,4.47,4.26.21.32,1.84,2.23,1.84,2.23l-.15,1.4-6.34.22.18-8.11Zm1.01-31.77l-1.29.05-.25-6.99c.41.83,1.04,2.13,1.33,2.87l.2,4.07Zm5.84-.21l-4.51.16-.71-14.47,4.72-.09.5,14.4Z"/>
  </g>
  <g id="uuid-0cde9543-92bb-4d6f-bc1a-9810d220b4d8" data-name="ship">
    <path class="uuid-0bd87078-7ce7-4c39-af10-45eeb4a3684a" d="m515.13,163.58c-1.48-.94-13.65-1.89-18.23-2.36v-29.13h-.68v.51c-.19.03-.5.42-.98,1.73-1.08,2.91-1.27,3.5-2.94,5.05-1.67,1.55-1.76,1.55-2.75,5.64-.98,4.08-.59,4.57-1.66,5.73-1.08,1.17-1.57,1.56-1.57,1.56,0,0,1.08.1,2.45,1.26,1.37,1.17,2.35,3.01,2.65,4.77.29,1.75.49,1.36.49,1.36,0,0,.49-2.53,1.37-3.79.88-1.26,1.18-2.43,1.37-4.08.2-1.65-.2-2.23.29-3.98.39-1.4,1.03-2.48,1.27-2.87v16.17c-.28-.03-.51-.06-.69-.09-2.55-.39-13.33-.1-13.33-.1l-3.14-4.47s.98-.19,1.18-1.46c.2-1.26-3.92-6.51-5.58-7.48-1.67-.97-3.53.78-4.21,1.94-.69,1.17-.59,1.65-.39,2.04.2.39-.1.29-1.08.97-.98.68-1.86,2.63-1.86,2.63,0,0-1.67,3.79-1.76,4.18-.1.39-.39.97-.39.97l-3.72.19s-1.76,1.26-.69,2.91c-.69.29-2.45.1-2.45.1l-5.19-19.44-15.97-.29-.29-1.75-4.7-.1-.39,1.75-11.56-.48s-.78-3.31-1.37-3.89c-2.84-.1-3.43-.29-3.43-.29l-1.47-3.89-1.67-.29-.29-1.56s-.04-.34-.14-.82l8.23-4-.43-.87-8.02,3.9c-.19-.74-.47-1.5-.82-1.8-.79-.68-7.94-.58-8.72-.58s-1.47.68-1.57.97c-.1.29-.98,3.4-.69,4.28.1.68-.88.68-.88.68l-1.57,4.08-1.37.19-.1.68-2.25-.1s-1.37-3.89-1.57-3.89-2.16-.58-2.16-.58c0,0-.23-1.34-.48-2.36l8.29-3.81-.41-.88-8.15,3.74s-.03-.07-.04-.09c-.29-.58-.2-2.04-4.21-1.94-4.02.1-5.78,0-6.08,1.07-.29,1.07-.69,1.75-.69,2.82s-.19,2.23-.19,2.23l-1.18.58-1.27,3.89-4.41.1-5.19-3.21h-17.44s-.59-1.46-3.63-2.92c-3.04-1.46-8.52-2.72-13.82-3.98-5.29-1.27-24.3-5.25-24.3-5.25l-.29-2.43-9.85.18v-17.07h.95v-1.31h.07v-.66h4.48v-.44h-4.48v-7.44h.07s-.07-1.17-.07-1.68-.88-3.72-4.92-2.91c-2.26.45-3.09,2.84-3.09,2.84v9.18h-1.55l-1.57-32.44,11.43-10.96.15-1.46h.44v-1.36h-.1v-6.71h-.1v-14.09h.79v-.88h-.79v-7.62c.73-.48,3.32-2.2,4.75-3.17h3.19v-1.94h-7.94v-.19h4.41v-1.36h-2.74v-1.55h-4.31v-4.96h-1.86v-6.9h2.84v-.1h-2.84v-.1h3.82v-.29h-3.82V0h-1.27v7.58h-2.16v.29h2.16v7.97h.88v4.08h-3.62v1.55h-6.47v.88h-2.94v.68h6.55l.11.78,2.25.77v1.85h-8.13v.58h4.7v1.56h3.43v2.23h1.08v-.1h2.26v5.05h-2.26v.88h2.26v3.01h-1.86v.78h1.86v10.3h-10.88v-3.26c1.98-.97,3.33-2.98,3.33-5.3,0-2.86-2.06-5.25-4.8-5.81v-16.84h-.58v16.75c-.21-.02-.42-.03-.64-.03-3.33,0-6.03,2.66-6.03,5.93,0,2.47,1.54,4.59,3.73,5.48v3.08h-.69v-1.46h-9.4v8.17h-.2v1.36h9.02v44.85h-2.32l.45-18.71-1.96-.39-.69-3.6-10.58-.29-.39-2.92s2.16.2,3.24-2.23c1.08-2.43,1.27-7-4.02-10.01-4.8-1.85-7.35-3.5-9.21-2.63-1.86.88-5.68,3.99-5.49,8.75.1,1.75.19,2.72,1.37,3.31,1.17.58,4.61,2.72,5.49,2.92.88.19,1.86,0,2.25.1.2.19,0,2.14,0,2.14l-2.45.29-.2,1.75-2.94.1-.39-1.94v-.61h-17.44v-.56h-3.23v1.46h.98l15.5,14.12-.51,14.94-7.15.1-.49-.1s.2-7.77,0-9.52c-.19-1.75-1.86-12.34-14.99-13.8-5,0-14.3,3.31-15.87,11.37-.1,4.08-.49,19.73-.49,19.73l-.39,2.62h-4.02l-.29-2.33h-9.31l-1.77,4.37s-2.64,7.29-3.43,16.81c-.79,9.53-1.18,15.46-1.18,15.46h-5.29l-.5,1.36-12.72-.52c-.45-.35-1.09-.7-2.07-1.04-3.43-1.17-8.72-1.17-10.88-.97-1.06.09-1.97.64-2.58,1.37l-6.93-.28v-.31l3.72-.39.1-12.83s.59-6.41-5.78-7.29c-6.17.1-15.09.1-15.09.1,0,0-2.74-.88-6.86,3.3-2.84,2.72-4.9,4.47-4.9,4.47l-5.98-.19-.78.49s-.02.05-.04.13l-13.81-.78-.1,1.65,13.58.77c0,.3.03.55.17.67,1.08.29,6.17.19,6.17.19,0,0-2.06,4.08-2.16,5.73.15,1.02.1,2.14.46,3.01l-89.72-3.67v-33.94h-1.18v1.02c-.55.43-1.75,1.28-3.78,1.81-2.75.73-7.49-.22-10.07,2.51-2.57,2.73-2.4,3.21-4.19,4.12-1,.51-.81.44-.81.44,0,0,1.58,3.83.04,8.09-1.54,4.26-1.47,3.76-1.36,5.32.99-.84,1.58-2.37,4.81-3.1,3.23-.73,4.77-4.26,7.86-5.18,3.09-.91,3.86-1.24,5.03-1.13.78.07,1.83.16,2.45.21v19.77l-4.47-.18-.04.87h.05v6.45h.27c1.63,1.64,19.3,19.4,23.78,24.95,4.7,5.83,15.88,21,15.88,21l97.79-1.65,89.36.97,269.55-6.71s5.58-23.13,2.75-31.39ZM290.16,23.04h.79v-.19h1.47v4.18h-2.06v-.58h-.2v-3.4Zm0,6.51v-.97h2.26v.97h-2.26ZM20.21,156.44c-1.55-.05-2.83-.1-3.57-.13v-6.33l3.57.15v6.3Zm0-27.82c-.52-.96-1.27-2.49-1.39-3.61-.14-1.34.82-4.59,1.39-6.39v10Zm5.17,27.98c-1.39-.04-2.75-.08-4-.13v-6.29l4,.17v6.25Zm8.74.18c-2.06,0-4.97-.07-7.86-.15v-6.24l7.86.32v6.07Zm10.51.29c-4.77-.2-8.07-.32-8.94-.3-.21,0-.44,0-.69.01v-6.04l9.63.4v5.93Zm9.63.43c-3.21-.15-6.17-.28-8.75-.39v-5.94l8.75.36v5.97Zm9.18.43c-2.87-.14-5.67-.27-8.3-.39v-5.97l8.3.34v6.02Zm9.92.48c-3.04-.15-6.08-.29-9.04-.44v-6.02l9.04.37v6.09Zm11.39.56c-3.42-.17-6.96-.35-10.51-.52v-6.1l10.51.43v6.19Zm11.39.56c-3.24-.16-6.8-.34-10.51-.52v-6.19l10.51.43v6.28Zm11.39.57c-2.71-.14-6.33-.32-10.51-.53v-6.29l10.51.43v6.39Zm9.97-3.04l-4.12.68-.59,2.62s-1.62-.08-4.39-.22v-6.4l3.36.14c.42.34,1.03.57,1.91.65,3.04.19,4.11.29,4.11.29l-.29,2.24Zm29,2.72l-.88-2.23-3.04-.64v-1.76l6.22.25c-.24.57-.3,1.18-.14,1.76.49,1.75.59,3.3.59,3.3l-2.74-.68Zm22.98,1.18h-1.13s-.68-3.22-1.76-3.71c-.5-.22-.62-.65-.94-1.16l3.83.16v4.72Zm6.12.08l-5.24-.07v-4.69l6.88.28-1.64,4.48Zm67.67-67.38l-14.39-13.1h1.1v-.12h8.31l-.38.61s-1.76,0-2.06.19c-.29.19-.88,1.17-.39,2.43.49,1.26,2.06,1.26,2.06,1.26l.49,1.85,4.8.58.49,5.15-.04,1.15Zm32.77-34.87h1.13v8.17h-1.13v-8.17Zm0,8.55h1.13v3.11h-1.13v-3.11Zm0,3.4h1.13v2.58h-1.13v-2.58Zm0,2.87h1.13v2.58h-1.13v-2.58Zm0,2.87h1.13v2.58h-1.13v-2.58Zm0,2.87h1.13v2.58h-1.13v-2.58Zm0,2.87h1.13v2.57h-1.13v-2.57Zm0,2.87h1.13v18.56h-1.13v-18.56Zm1.13,20.97v.17l-.7-.17h.7Zm3.29-10.86v-36.4h.91l1.1,36.4h-2.01Zm5.21-36.4h6.34l.2,1.65s-1.57,2.33-1.76,2.72c-.15.3-3.05,3.74-4.32,5.24l-.46-9.61Zm2.54,52.1c-.27.89-.85,2.46-1.23,3.46v-8.3h1.29l-.05,4.84Zm5.9,12.27l-4.72.09.2-17.2h4.52v17.11Z"/>
  </g>
</svg>